# xmcd
# 
# Track frame offsets:
#     150
#     19934
#     47923
#     70166
#     93948
#     113839
#     141317
#     167971
#     190062
#     207101
#     229332
#     251828
# 
# Disc length: 3620
# 
# Revision: 2
# Processed by: cddbd v1.5.2PL0 Copyright (c) Steve Scherf et al.
# Submitted via: fre:ac v1.0.31
# 
DISCID=ad0e220c
DTITLE=Savoy Brown - Goin' To The Delta
DYEAR=2014
DGENRE=Blues
TTITLE0=Laura Lee
TTITLE1=Sad News
TTITLE2=Nuthin' Like the Blues
TTITLE3=When You've Got a Good Thing
TTITLE4=Cobra
TTITLE5=Backstreet Woman
TTITLE6=Goin' to the Delta
TTITLE7=Just a Dream
TTITLE8=Turn Your Lamp on
TTITLE9=I Miss Your Love
TTITLE10=Sleeping Rough
TTITLE11=Going Back
EXTD=
EXTT0=
EXTT1=
EXTT2=
EXTT3=
EXTT4=
EXTT5=
EXTT6=
EXTT7=
EXTT8=
EXTT9=
EXTT10=
EXTT11=
PLAYORDER=
